<svg id="community" width="16" height="8" viewBox="0 0 16 8" fill="currentColor" xmlns="http://www.w3.org/2000/svg">
  <path d="M8 4.5C8.54167 4.5 9.05208 4.5625 9.53125 4.6875C10.0104 4.79167 10.4375 4.92708 10.8125 5.09375C11.1875 5.26042 11.4792 5.51042 11.6875 5.84375C11.8958 6.17708 12 6.53125 12 6.90625V8H4V6.9375C4 6.54167 4.10417 6.17708 4.3125 5.84375C4.52083 5.51042 4.8125 5.26042 5.1875 5.09375C5.5625 4.92708 5.98958 4.79167 6.46875 4.6875C6.94792 4.5625 7.45833 4.5 8 4.5ZM2.65625 4.65625C3.03125 4.65625 3.34375 4.53125 3.59375 4.28125C3.86458 4.01042 4 3.69792 4 3.34375C4 2.96875 3.86458 2.65625 3.59375 2.40625C3.34375 2.13542 3.03125 2 2.65625 2C2.30208 2 1.98958 2.13542 1.71875 2.40625C1.46875 2.65625 1.34375 2.96875 1.34375 3.34375C1.34375 3.69792 1.46875 4.01042 1.71875 4.28125C1.98958 4.53125 2.30208 4.65625 2.65625 4.65625ZM3.40625 5.40625C3.30208 5.38542 3.1875 5.375 3.0625 5.375C2.9375 5.35417 2.80208 5.34375 2.65625 5.34375C2.32292 5.34375 2 5.375 1.6875 5.4375C1.39583 5.5 1.10417 5.59375 0.8125 5.71875C0.5625 5.82292 0.364583 5.98958 0.21875 6.21875C0.0729167 6.44792 0 6.69792 0 6.96875V8H3V6.9375C3 6.39583 3.13542 5.88542 3.40625 5.40625ZM13.3438 4.65625C13.6979 4.65625 14 4.53125 14.25 4.28125C14.5208 4.01042 14.6562 3.69792 14.6562 3.34375C14.6562 2.96875 14.5208 2.65625 14.25 2.40625C14 2.13542 13.6979 2 13.3438 2C12.9688 2 12.6458 2.13542 12.375 2.40625C12.125 2.65625 12 2.96875 12 3.34375C12 3.69792 12.125 4.01042 12.375 4.28125C12.6458 4.53125 12.9688 4.65625 13.3438 4.65625ZM16 6.96875C16 6.69792 15.9271 6.44792 15.7812 6.21875C15.6354 5.98958 15.4375 5.82292 15.1875 5.71875C14.8958 5.59375 14.5938 5.5 14.2812 5.4375C13.9896 5.375 13.6771 5.34375 13.3438 5.34375C13.1979 5.34375 13.0625 5.35417 12.9375 5.375C12.8125 5.375 12.6979 5.38542 12.5938 5.40625C12.8646 5.88542 13 6.39583 13 6.9375V8H16V6.96875ZM8 0C8.375 0 8.70833 0.09375 9 0.28125C9.3125 0.447917 9.55208 0.6875 9.71875 1C9.90625 1.29167 10 1.625 10 2C10 2.375 9.90625 2.71875 9.71875 3.03125C9.55208 3.32292 9.3125 3.5625 9 3.75C8.70833 3.91667 8.375 4 8 4C7.625 4 7.28125 3.91667 6.96875 3.75C6.67708 3.5625 6.4375 3.32292 6.25 3.03125C6.08333 2.71875 6 2.375 6 2C6 1.625 6.08333 1.29167 6.25 1C6.4375 0.6875 6.67708 0.447917 6.96875 0.28125C7.28125 0.09375 7.625 0 8 0Z" fill="currentColor"/>
</svg>
